<?xml version="1.0" standalone="no"?>
<!DOCTYPE svg PUBLIC "-//W3C//DTD SVG 20010904//EN"
 "http://www.w3.org/TR/2001/REC-SVG-20010904/DTD/svg10.dtd">
<svg version="1.0" xmlns="http://www.w3.org/2000/svg"
 width="32.000000pt" height="32.000000pt" viewBox="0 0 32.000000 32.000000"
 preserveAspectRatio="xMidYMid meet">

<g transform="translate(0.000000,32.000000) scale(0.100000,-0.100000)"
fill="#000000" stroke="none">
<path d="M113 268 c-22 -28 -41 -76 -57 -145 -9 -40 -16 -74 -16 -77 0 -4 19
-6 43 -6 40 0 44 2 56 35 16 44 26 44 42 0 12 -33 16 -35 56 -35 24 0 43 3 43
8 0 28 -40 166 -56 193 -17 29 -26 34 -60 37 -25 2 -45 -2 -51 -10z m61 -64
c10 -26 7 -34 -14 -34 -11 0 -20 4 -20 9 0 17 12 41 20 41 4 0 11 -7 14 -16z"/>
</g>
</svg>
